<svg width="36" height="36" viewBox="0 0 36 36" fill="none" xmlns="http://www.w3.org/2000/svg">
<path d="M11.625 12C11.7188 12 11.7656 12.0469 11.8594 12.1406C11.9531 12.2344 12 12.2812 12 12.375V23.625C12 23.7188 11.9531 23.8125 11.8594 23.9062C11.7656 24 11.7188 24 11.625 24H9.375C9.28125 24 9.1875 24 9.09375 23.9062C9 23.8125 9 23.7188 9 23.625V12.375C9 12.2812 9 12.2344 9.09375 12.1406C9.1875 12.0469 9.28125 12 9.375 12H11.625ZM9.75 27C9.9375 27 10.125 27.0938 10.2656 27.2344C10.4062 27.375 10.5 27.5625 10.5 27.75V29.25C10.5 29.4844 10.4062 29.6719 10.2656 29.8125C10.125 29.9531 9.9375 30 9.75 30H3.75C3.51562 30 3.32812 29.9531 3.1875 29.8125C3.04688 29.6719 3 29.4844 3 29.25V23.25C3 23.0625 3.04688 22.875 3.1875 22.7344C3.32812 22.5938 3.51562 22.5 3.75 22.5H5.25C5.4375 22.5 5.625 22.5938 5.76562 22.7344C5.90625 22.875 6 23.0625 6 23.25V27H9.75ZM14.625 12C14.7188 12 14.7656 12.0469 14.8594 12.1406C14.9531 12.2344 15 12.2812 15 12.375V23.625C15 23.7188 14.9531 23.8125 14.8594 23.9062C14.7656 24 14.7188 24 14.625 24H13.875C13.7812 24 13.6875 24 13.5938 23.9062C13.5 23.8125 13.5 23.7188 13.5 23.625V12.375C13.5 12.2812 13.5 12.2344 13.5938 12.1406C13.6875 12.0469 13.7812 12 13.875 12H14.625ZM3.75 13.5C3.51562 13.5 3.32812 13.4531 3.1875 13.3125C3.04688 13.1719 3 12.9844 3 12.75V6.75C3 6.5625 3.04688 6.375 3.1875 6.23438C3.32812 6.09375 3.51562 6 3.75 6H9.75C9.9375 6 10.125 6.09375 10.2656 6.23438C10.4062 6.375 10.5 6.5625 10.5 6.75V8.25C10.5 8.48438 10.4062 8.67188 10.2656 8.8125C10.125 8.95312 9.9375 9 9.75 9H6V12.75C6 12.9844 5.90625 13.1719 5.76562 13.3125C5.625 13.4531 5.4375 13.5 5.25 13.5H3.75ZM22.125 12C22.2188 12 22.2656 12.0469 22.3594 12.1406C22.4531 12.2344 22.5 12.2812 22.5 12.375V23.625C22.5 23.7188 22.4531 23.8125 22.3594 23.9062C22.2656 24 22.2188 24 22.125 24H19.875C19.7812 24 19.6875 24 19.5938 23.9062C19.5 23.8125 19.5 23.7188 19.5 23.625V12.375C19.5 12.2812 19.5 12.2344 19.5938 12.1406C19.6875 12.0469 19.7812 12 19.875 12H22.125ZM17.625 12C17.7188 12 17.7656 12.0469 17.8594 12.1406C17.9531 12.2344 18 12.2812 18 12.375V23.625C18 23.7188 17.9531 23.8125 17.8594 23.9062C17.7656 24 17.7188 24 17.625 24H16.875C16.7812 24 16.6875 24 16.5938 23.9062C16.5 23.8125 16.5 23.7188 16.5 23.625V12.375C16.5 12.2812 16.5 12.2344 16.5938 12.1406C16.6875 12.0469 16.7812 12 16.875 12H17.625ZM32.25 6C32.4375 6 32.625 6.09375 32.7656 6.23438C32.9062 6.375 33 6.5625 33 6.75V12.75C33 12.9844 32.9062 13.1719 32.7656 13.3125C32.625 13.4531 32.4375 13.5 32.25 13.5H30.75C30.5156 13.5 30.3281 13.4531 30.1875 13.3125C30.0469 13.1719 30 12.9844 30 12.75V9H26.25C26.0156 9 25.8281 8.95312 25.6875 8.8125C25.5469 8.67188 25.5 8.48438 25.5 8.25V6.75C25.5 6.5625 25.5469 6.375 25.6875 6.23438C25.8281 6.09375 26.0156 6 26.25 6H32.25ZM32.25 22.5C32.4375 22.5 32.625 22.5938 32.7656 22.7344C32.9062 22.875 33 23.0625 33 23.25V29.25C33 29.4844 32.9062 29.6719 32.7656 29.8125C32.625 29.9531 32.4375 30 32.25 30H26.25C26.0156 30 25.8281 29.9531 25.6875 29.8125C25.5469 29.6719 25.5 29.4844 25.5 29.25V27.75C25.5 27.5625 25.5469 27.375 25.6875 27.2344C25.8281 27.0938 26.0156 27 26.25 27H30V23.25C30 23.0625 30.0469 22.875 30.1875 22.7344C30.3281 22.5938 30.5156 22.5 30.75 22.5H32.25ZM27 23.625C27 23.7188 26.9531 23.8125 26.8594 23.9062C26.7656 24 26.7188 24 26.625 24H24.375C24.2812 24 24.1875 24 24.0938 23.9062C24 23.8125 24 23.7188 24 23.625V12.375C24 12.2812 24 12.2344 24.0938 12.1406C24.1875 12.0469 24.2812 12 24.375 12H26.625C26.7188 12 26.7656 12.0469 26.8594 12.1406C26.9531 12.2344 27 12.2812 27 12.375V23.625Z" fill="white"/>
</svg>
